<svg id="visual" viewBox="0 0 900 600" width="900" height="600" xmlns="http://www.w3.org/2000/svg" xmlns:xlink="http://www.w3.org/1999/xlink" version="1.1"><g stroke-width="1" stroke-linejoin="bevel"><path d="M437 313L370 323L374 373Z" fill="#0c2435" stroke="#0c2435"></path><path d="M374 373L473 374L437 313Z" fill="#00101c" stroke="#00101c"></path><path d="M470 425L501 381L473 374Z" fill="#0c2435" stroke="#0c2435"></path><path d="M473 374L506 278L437 313Z" fill="#15384f" stroke="#15384f"></path><path d="M374 373L470 425L473 374Z" fill="#1d4e6b" stroke="#1d4e6b"></path><path d="M282 386L323 424L374 373Z" fill="#297ea6" stroke="#297ea6"></path><path d="M374 373L358 461L470 425Z" fill="#081a28" stroke="#081a28"></path><path d="M501 381L506 278L473 374Z" fill="#277297" stroke="#277297"></path><path d="M437 313L360 208L370 323Z" fill="#19435d" stroke="#19435d"></path><path d="M323 424L358 461L374 373Z" fill="#15384f" stroke="#15384f"></path><path d="M370 323L282 386L374 373Z" fill="#0c2435" stroke="#0c2435"></path><path d="M295 527L396 520L358 461Z" fill="#246688" stroke="#246688"></path><path d="M470 425L501 451L501 381Z" fill="#112e42" stroke="#112e42"></path><path d="M592 273L516 244L506 278Z" fill="#0c2435" stroke="#0c2435"></path><path d="M434 518L501 451L470 425Z" fill="#1d4e6b" stroke="#1d4e6b"></path><path d="M469 201L360 208L437 313Z" fill="#297ea6" stroke="#297ea6"></path><path d="M370 323L281 272L282 386Z" fill="#277297" stroke="#277297"></path><path d="M290 239L281 272L370 323Z" fill="#297ea6" stroke="#297ea6"></path><path d="M572 384L506 278L501 381Z" fill="#112e42" stroke="#112e42"></path><path d="M506 278L469 201L437 313Z" fill="#205a7a" stroke="#205a7a"></path><path d="M516 244L469 201L506 278Z" fill="#297ea6" stroke="#297ea6"></path><path d="M360 208L290 239L370 323Z" fill="#246688" stroke="#246688"></path><path d="M235 326L250 373L282 386Z" fill="#081a28" stroke="#081a28"></path><path d="M282 386L245 451L323 424Z" fill="#19435d" stroke="#19435d"></path><path d="M235 326L282 386L281 272Z" fill="#112e42" stroke="#112e42"></path><path d="M501 451L572 384L501 381Z" fill="#246688" stroke="#246688"></path><path d="M241 241L235 326L281 272Z" fill="#112e42" stroke="#112e42"></path><path d="M358 461L434 518L470 425Z" fill="#00101c" stroke="#00101c"></path><path d="M501 451L595 455L572 384Z" fill="#0c2435" stroke="#0c2435"></path><path d="M295 527L358 461L323 424Z" fill="#15384f" stroke="#15384f"></path><path d="M358 461L396 520L434 518Z" fill="#1d4e6b" stroke="#1d4e6b"></path><path d="M138 436L245 451L250 373Z" fill="#00101c" stroke="#00101c"></path><path d="M250 373L245 451L282 386Z" fill="#0c2435" stroke="#0c2435"></path><path d="M242 172L241 241L290 239Z" fill="#277297" stroke="#277297"></path><path d="M290 239L241 241L281 272Z" fill="#1d4e6b" stroke="#1d4e6b"></path><path d="M572 384L592 273L506 278Z" fill="#00101c" stroke="#00101c"></path><path d="M516 244L515 138L469 201Z" fill="#297ea6" stroke="#297ea6"></path><path d="M469 201L401 135L360 208Z" fill="#205a7a" stroke="#205a7a"></path><path d="M360 208L326 151L290 239Z" fill="#297ea6" stroke="#297ea6"></path><path d="M426 127L401 135L469 201Z" fill="#0c2435" stroke="#0c2435"></path><path d="M401 135L326 151L360 208Z" fill="#1d4e6b" stroke="#1d4e6b"></path><path d="M245 451L295 527L323 424Z" fill="#0c2435" stroke="#0c2435"></path><path d="M431 600L512 546L434 518Z" fill="#1d4e6b" stroke="#1d4e6b"></path><path d="M594 500L595 455L501 451Z" fill="#277297" stroke="#277297"></path><path d="M572 384L661 383L592 273Z" fill="#297ea6" stroke="#297ea6"></path><path d="M515 138L426 127L469 201Z" fill="#081a28" stroke="#081a28"></path><path d="M401 135L385 65L326 151Z" fill="#112e42" stroke="#112e42"></path><path d="M431 600L434 518L396 520Z" fill="#246688" stroke="#246688"></path><path d="M434 518L512 546L501 451Z" fill="#297ea6" stroke="#297ea6"></path><path d="M610 201L515 138L516 244Z" fill="#15384f" stroke="#15384f"></path><path d="M241 241L171 325L235 326Z" fill="#277297" stroke="#277297"></path><path d="M235 326L171 325L250 373Z" fill="#112e42" stroke="#112e42"></path><path d="M326 151L242 172L290 239Z" fill="#1d4e6b" stroke="#1d4e6b"></path><path d="M241 241L172 218L171 325Z" fill="#19435d" stroke="#19435d"></path><path d="M512 546L594 500L501 451Z" fill="#112e42" stroke="#112e42"></path><path d="M650 211L610 201L592 273Z" fill="#1d4e6b" stroke="#1d4e6b"></path><path d="M592 273L610 201L516 244Z" fill="#0c2435" stroke="#0c2435"></path><path d="M661 383L572 384L595 455Z" fill="#15384f" stroke="#15384f"></path><path d="M322 600L399 600L396 520Z" fill="#297ea6" stroke="#297ea6"></path><path d="M399 600L431 600L396 520Z" fill="#081a28" stroke="#081a28"></path><path d="M512 546L551 600L594 500Z" fill="#112e42" stroke="#112e42"></path><path d="M688 474L661 383L595 455Z" fill="#15384f" stroke="#15384f"></path><path d="M661 383L666 278L592 273Z" fill="#1d4e6b" stroke="#1d4e6b"></path><path d="M545 69L465 84L515 138Z" fill="#112e42" stroke="#112e42"></path><path d="M515 138L465 84L426 127Z" fill="#081a28" stroke="#081a28"></path><path d="M426 127L385 65L401 135Z" fill="#19435d" stroke="#19435d"></path><path d="M326 151L224 99L242 172Z" fill="#15384f" stroke="#15384f"></path><path d="M242 172L172 218L241 241Z" fill="#081a28" stroke="#081a28"></path><path d="M295 527L322 600L396 520Z" fill="#205a7a" stroke="#205a7a"></path><path d="M220 600L322 600L295 527Z" fill="#19435d" stroke="#19435d"></path><path d="M202 522L295 527L245 451Z" fill="#15384f" stroke="#15384f"></path><path d="M138 436L202 522L245 451Z" fill="#205a7a" stroke="#205a7a"></path><path d="M650 211L599 151L610 201Z" fill="#297ea6" stroke="#297ea6"></path><path d="M610 201L599 151L515 138Z" fill="#19435d" stroke="#19435d"></path><path d="M666 278L650 211L592 273Z" fill="#00101c" stroke="#00101c"></path><path d="M465 84L385 65L426 127Z" fill="#277297" stroke="#277297"></path><path d="M242 172L136 171L172 218Z" fill="#112e42" stroke="#112e42"></path><path d="M123 378L250 373L171 325Z" fill="#19435d" stroke="#19435d"></path><path d="M123 378L138 436L250 373Z" fill="#081a28" stroke="#081a28"></path><path d="M48 318L123 378L171 325Z" fill="#112e42" stroke="#112e42"></path><path d="M431 600L551 600L512 546Z" fill="#00101c" stroke="#00101c"></path><path d="M594 500L688 474L595 455Z" fill="#00101c" stroke="#00101c"></path><path d="M138 436L172 542L202 522Z" fill="#0c2435" stroke="#0c2435"></path><path d="M202 522L220 600L295 527Z" fill="#081a28" stroke="#081a28"></path><path d="M285 53L224 99L326 151Z" fill="#277297" stroke="#277297"></path><path d="M580 75L545 69L515 138Z" fill="#19435d" stroke="#19435d"></path><path d="M465 84L423 0L385 65Z" fill="#246688" stroke="#246688"></path><path d="M580 75L515 138L599 151Z" fill="#205a7a" stroke="#205a7a"></path><path d="M666 531L688 474L594 500Z" fill="#277297" stroke="#277297"></path><path d="M661 383L722 353L666 278Z" fill="#112e42" stroke="#112e42"></path><path d="M551 600L591 600L594 500Z" fill="#277297" stroke="#277297"></path><path d="M688 474L722 353L661 383Z" fill="#00101c" stroke="#00101c"></path><path d="M666 278L726 232L650 211Z" fill="#205a7a" stroke="#205a7a"></path><path d="M172 542L220 600L202 522Z" fill="#205a7a" stroke="#205a7a"></path><path d="M385 65L285 53L326 151Z" fill="#1d4e6b" stroke="#1d4e6b"></path><path d="M347 0L285 53L385 65Z" fill="#081a28" stroke="#081a28"></path><path d="M591 600L666 531L594 500Z" fill="#0c2435" stroke="#0c2435"></path><path d="M699 74L580 75L599 151Z" fill="#00101c" stroke="#00101c"></path><path d="M224 99L136 171L242 172Z" fill="#081a28" stroke="#081a28"></path><path d="M172 218L68 239L171 325Z" fill="#1d4e6b" stroke="#1d4e6b"></path><path d="M821 281L739 294L722 353Z" fill="#112e42" stroke="#112e42"></path><path d="M722 353L739 294L666 278Z" fill="#246688" stroke="#246688"></path><path d="M650 211L687 147L599 151Z" fill="#277297" stroke="#277297"></path><path d="M739 294L726 232L666 278Z" fill="#205a7a" stroke="#205a7a"></path><path d="M726 232L687 147L650 211Z" fill="#15384f" stroke="#15384f"></path><path d="M524 0L465 84L545 69Z" fill="#081a28" stroke="#081a28"></path><path d="M524 0L423 0L465 84Z" fill="#0c2435" stroke="#0c2435"></path><path d="M423 0L347 0L385 65Z" fill="#00101c" stroke="#00101c"></path><path d="M207 0L163 84L224 99Z" fill="#297ea6" stroke="#297ea6"></path><path d="M136 171L68 239L172 218Z" fill="#277297" stroke="#277297"></path><path d="M123 378L62 449L138 436Z" fill="#205a7a" stroke="#205a7a"></path><path d="M138 436L87 549L172 542Z" fill="#277297" stroke="#277297"></path><path d="M224 99L163 84L136 171Z" fill="#297ea6" stroke="#297ea6"></path><path d="M136 171L85 150L68 239Z" fill="#15384f" stroke="#15384f"></path><path d="M207 0L224 99L285 53Z" fill="#081a28" stroke="#081a28"></path><path d="M48 318L50 368L123 378Z" fill="#19435d" stroke="#19435d"></path><path d="M764 545L771 459L688 474Z" fill="#15384f" stroke="#15384f"></path><path d="M688 474L771 459L722 353Z" fill="#246688" stroke="#246688"></path><path d="M591 600L660 600L666 531Z" fill="#19435d" stroke="#19435d"></path><path d="M347 0L309 0L285 53Z" fill="#0c2435" stroke="#0c2435"></path><path d="M68 239L48 318L171 325Z" fill="#081a28" stroke="#081a28"></path><path d="M50 368L62 449L123 378Z" fill="#081a28" stroke="#081a28"></path><path d="M172 542L151 600L220 600Z" fill="#15384f" stroke="#15384f"></path><path d="M87 549L151 600L172 542Z" fill="#15384f" stroke="#15384f"></path><path d="M595 0L545 69L580 75Z" fill="#081a28" stroke="#081a28"></path><path d="M595 0L524 0L545 69Z" fill="#081a28" stroke="#081a28"></path><path d="M163 84L85 150L136 171Z" fill="#1d4e6b" stroke="#1d4e6b"></path><path d="M0 286L0 375L48 318Z" fill="#15384f" stroke="#15384f"></path><path d="M62 449L87 549L138 436Z" fill="#277297" stroke="#277297"></path><path d="M764 545L688 474L666 531Z" fill="#1d4e6b" stroke="#1d4e6b"></path><path d="M726 232L744 165L687 147Z" fill="#246688" stroke="#246688"></path><path d="M671 0L595 0L580 75Z" fill="#0c2435" stroke="#0c2435"></path><path d="M815 216L744 165L726 232Z" fill="#19435d" stroke="#19435d"></path><path d="M821 281L726 232L739 294Z" fill="#297ea6" stroke="#297ea6"></path><path d="M699 74L599 151L687 147Z" fill="#205a7a" stroke="#205a7a"></path><path d="M747 85L699 74L687 147Z" fill="#297ea6" stroke="#297ea6"></path><path d="M309 0L207 0L285 53Z" fill="#1d4e6b" stroke="#1d4e6b"></path><path d="M163 84L83 73L85 150Z" fill="#00101c" stroke="#00101c"></path><path d="M50 368L0 437L62 449Z" fill="#19435d" stroke="#19435d"></path><path d="M62 449L0 548L87 549Z" fill="#081a28" stroke="#081a28"></path><path d="M48 318L0 375L50 368Z" fill="#246688" stroke="#246688"></path><path d="M0 286L48 318L68 239Z" fill="#205a7a" stroke="#205a7a"></path><path d="M736 600L764 545L666 531Z" fill="#205a7a" stroke="#205a7a"></path><path d="M0 209L0 286L68 239Z" fill="#112e42" stroke="#112e42"></path><path d="M660 600L736 600L666 531Z" fill="#277297" stroke="#277297"></path><path d="M0 375L0 437L50 368Z" fill="#277297" stroke="#277297"></path><path d="M820 423L722 353L771 459Z" fill="#00101c" stroke="#00101c"></path><path d="M839 394L821 281L722 353Z" fill="#15384f" stroke="#15384f"></path><path d="M744 165L747 85L687 147Z" fill="#19435d" stroke="#19435d"></path><path d="M843 500L820 423L771 459Z" fill="#246688" stroke="#246688"></path><path d="M160 0L83 73L163 84Z" fill="#0c2435" stroke="#0c2435"></path><path d="M85 150L0 209L68 239Z" fill="#081a28" stroke="#081a28"></path><path d="M0 548L68 600L87 549Z" fill="#0c2435" stroke="#0c2435"></path><path d="M87 549L68 600L151 600Z" fill="#081a28" stroke="#081a28"></path><path d="M207 0L160 0L163 84Z" fill="#00101c" stroke="#00101c"></path><path d="M821 281L815 216L726 232Z" fill="#277297" stroke="#277297"></path><path d="M809 129L747 85L744 165Z" fill="#246688" stroke="#246688"></path><path d="M699 74L671 0L580 75Z" fill="#277297" stroke="#277297"></path><path d="M0 165L0 209L85 150Z" fill="#277297" stroke="#277297"></path><path d="M820 423L839 394L722 353Z" fill="#081a28" stroke="#081a28"></path><path d="M821 281L900 221L815 216Z" fill="#1d4e6b" stroke="#1d4e6b"></path><path d="M900 379L839 394L900 435Z" fill="#00101c" stroke="#00101c"></path><path d="M765 0L671 0L699 74Z" fill="#081a28" stroke="#081a28"></path><path d="M0 77L0 165L85 150Z" fill="#081a28" stroke="#081a28"></path><path d="M0 437L0 548L62 449Z" fill="#1d4e6b" stroke="#1d4e6b"></path><path d="M815 216L809 129L744 165Z" fill="#081a28" stroke="#081a28"></path><path d="M747 85L765 0L699 74Z" fill="#112e42" stroke="#112e42"></path><path d="M900 173L809 129L815 216Z" fill="#277297" stroke="#277297"></path><path d="M849 600L843 500L764 545Z" fill="#205a7a" stroke="#205a7a"></path><path d="M764 545L843 500L771 459Z" fill="#246688" stroke="#246688"></path><path d="M160 0L76 0L83 73Z" fill="#081a28" stroke="#081a28"></path><path d="M83 73L0 77L85 150Z" fill="#277297" stroke="#277297"></path><path d="M0 548L0 600L68 600Z" fill="#112e42" stroke="#112e42"></path><path d="M76 0L0 77L83 73Z" fill="#0c2435" stroke="#0c2435"></path><path d="M900 435L839 394L820 423Z" fill="#112e42" stroke="#112e42"></path><path d="M839 394L900 297L821 281Z" fill="#00101c" stroke="#00101c"></path><path d="M900 379L900 297L839 394Z" fill="#246688" stroke="#246688"></path><path d="M848 63L747 85L809 129Z" fill="#112e42" stroke="#112e42"></path><path d="M848 63L765 0L747 85Z" fill="#1d4e6b" stroke="#1d4e6b"></path><path d="M843 500L900 435L820 423Z" fill="#246688" stroke="#246688"></path><path d="M900 297L900 221L821 281Z" fill="#15384f" stroke="#15384f"></path><path d="M736 600L849 600L764 545Z" fill="#205a7a" stroke="#205a7a"></path><path d="M843 500L900 544L900 435Z" fill="#0c2435" stroke="#0c2435"></path><path d="M900 221L900 173L815 216Z" fill="#081a28" stroke="#081a28"></path><path d="M900 71L848 63L809 129Z" fill="#081a28" stroke="#081a28"></path><path d="M849 600L900 544L843 500Z" fill="#297ea6" stroke="#297ea6"></path><path d="M76 0L0 0L0 77Z" fill="#0c2435" stroke="#0c2435"></path><path d="M849 600L900 600L900 544Z" fill="#205a7a" stroke="#205a7a"></path><path d="M900 0L847 0L848 63Z" fill="#15384f" stroke="#15384f"></path><path d="M848 63L847 0L765 0Z" fill="#297ea6" stroke="#297ea6"></path><path d="M900 173L900 71L809 129Z" fill="#205a7a" stroke="#205a7a"></path><path d="M900 71L900 0L848 63Z" fill="#15384f" stroke="#15384f"></path></g></svg>